<svg width="338" height="75" viewBox="0 0 338 75" fill="none" xmlns="http://www.w3.org/2000/svg">
<path d="M53.776 6.184L43.6 5.89599C37.392 5.89599 33.104 6.568 30.736 7.912C29.712 8.488 28.592 9.352 27.376 10.504C26.224 11.656 25.328 13.064 24.688 14.728C23.152 18.696 22.384 23.656 22.384 29.608C20.4 30.952 18.192 32.68 15.76 34.792C15.76 22.44 19.824 12.936 27.952 6.27999C32.688 2.43999 39.248 0.519995 47.632 0.519995C47.824 0.519995 53.104 0.807995 63.472 1.384C61.616 5.096 60.688 15.4 60.688 32.296C60.688 46.888 60.976 56.008 61.552 59.656C62.192 63.24 62.832 65.48 63.472 66.376C64.176 67.272 65.328 67.72 66.928 67.72C68.528 67.72 70.832 66.824 73.84 65.032L74.224 65.8C70.768 68.872 67.024 71.624 62.992 74.056C60.112 74.056 58.128 72.968 57.04 70.792C56.4 69.512 55.888 68.296 55.504 67.144C55.12 65.992 54.8 64.136 54.544 61.576C54.288 58.12 54.096 53.128 53.968 46.6H36.496C36.048 47.432 35.344 48.872 34.384 50.92C32.336 54.952 30.768 57.704 29.68 59.176C22.576 68.904 14.96 73.768 6.832 73.768H0.879999L5.392 67.624C7.696 68.2 10.16 68.488 12.784 68.488C15.472 68.488 17.552 67.88 19.024 66.664C20.56 65.448 22.416 63.016 24.592 59.368C26.768 55.72 31.408 47.144 38.512 33.64C45.616 20.136 50.704 10.984 53.776 6.184ZM53.872 41.896C53.808 39.528 53.776 36.392 53.776 32.488C53.776 28.584 53.808 24.648 53.872 20.68C53.936 16.648 53.968 14.536 53.968 14.344C52.048 17.8 49.424 22.728 46.096 29.128C42.832 35.528 40.624 39.784 39.472 41.896H53.872ZM83.6178 12.04C86.9458 8.456 91.2658 5.672 96.5778 3.68799C101.954 1.64 108.002 0.615999 114.722 0.615999C121.442 0.615999 126.402 1.736 129.602 3.976C132.802 6.216 134.402 8.968 134.402 12.232C134.402 15.496 133.25 18.984 130.946 22.696C128.642 26.344 125.794 29.32 122.402 31.624C126.946 32.392 130.306 33.928 132.482 36.232C134.658 38.472 135.746 41.48 135.746 45.256C135.746 49.032 134.178 53.16 131.042 57.64C127.906 62.056 123.81 65.736 118.754 68.68C113.698 71.56 108.642 73 103.586 73H82.6578L82.2738 72.232C87.8418 71.08 91.5218 65.672 93.3138 56.008C94.4658 49.992 95.5858 43.496 96.6738 36.52C97.7618 29.544 98.5938 24.456 99.1698 21.256C100.45 13.384 102.018 8.2 103.874 5.704L103.97 5.608C96.9298 5.736 91.1698 8.2 86.6898 13C82.2098 17.8 79.9698 24.872 79.9698 34.216L73.7297 39.592C73.7297 28.456 77.0258 19.272 83.6178 12.04ZM117.41 30.856C120.034 30.856 122.274 29.512 124.13 26.824C125.986 24.136 126.914 21.096 126.914 17.704C126.914 14.248 125.762 11.336 123.458 8.96799C121.218 6.536 117.762 5.32 113.09 5.32L109.154 5.512C108.642 6.536 108.226 7.912 107.906 9.64C103.618 35.624 101.09 50.664 100.322 54.76C99.5538 58.856 97.1538 62.856 93.1218 66.76L93.5058 67.528H107.714C114.306 67.528 119.49 65.768 123.266 62.248C127.106 58.664 129.026 54.696 129.026 50.344C129.026 45.928 127.554 42.312 124.61 39.496C121.73 36.616 117.57 35.112 112.13 34.984H110.018L112.802 31.432L113.858 30.184C114.946 30.632 116.13 30.856 117.41 30.856ZM176.824 0.711998C181.688 2.12 185.304 5.096 187.672 9.64C190.04 14.184 191.224 19.72 191.224 26.248C191.224 32.712 189.784 39.304 186.904 46.024C184.024 52.68 179.992 58.536 174.808 63.592C169.688 68.584 164.088 71.88 158.008 73.48C152.824 72.136 148.92 69.384 146.296 65.224C143.672 61.064 142.36 56.072 142.36 50.248C142.36 39.624 145.72 29.352 152.44 19.432C159.224 9.448 167.352 3.208 176.824 0.711998ZM184.696 31.816C184.696 25.8 183.64 20.488 181.528 15.88C179.416 11.272 176.184 8.008 171.832 6.088C165.304 8.072 159.832 12.904 155.416 20.584C151.064 28.2 148.888 36.168 148.888 44.488C148.888 50.056 150.04 54.952 152.344 59.176C154.712 63.4 158.264 66.376 163 68.104C169.208 66.248 174.36 61.736 178.456 54.568C182.616 47.336 184.696 39.752 184.696 31.816ZM225.595 0.999994H234.619L234.715 1.288C234.075 1.736 233.307 2.696 232.411 4.168C231.515 5.576 230.811 7.208 230.299 9.064C225.691 34.152 223.387 49.48 223.387 55.048C223.387 62.856 225.947 66.76 231.067 66.76C233.243 66.76 235.515 65.64 237.883 63.4C240.315 61.096 242.459 58.344 244.315 55.144C248.283 48.168 250.779 42.248 251.803 37.384L257.947 6.376C258.395 5.224 259.259 4.232 260.539 3.4C261.819 2.568 262.907 2.024 263.803 1.768C264.763 1.512 266.043 1.224 267.643 0.903996L267.739 1.192C265.307 2.728 263.739 5.544 263.035 9.64C262.651 11.88 261.915 16.104 260.827 22.312C257.179 43.24 255.355 55.176 255.355 58.12C255.355 61 255.995 63.144 257.275 64.552C258.619 65.96 260.379 66.664 262.555 66.664C264.795 66.664 267.419 65.768 270.427 63.976L270.811 64.744C267.355 67.816 263.611 70.568 259.579 73C252.987 72.936 249.691 68.424 249.691 59.464C249.691 56.712 250.075 53.032 250.843 48.424H250.363C248.123 54.568 244.411 60.232 239.227 65.416C234.043 70.536 229.467 73.096 225.499 73.096C219.419 73.096 216.379 67.976 216.379 57.736C216.379 54.344 216.667 50.856 217.243 47.272C217.819 43.624 218.427 39.464 219.067 34.792L220.603 24.04C221.563 17.512 222.363 13.192 223.003 11.08C223.707 8.968 224.379 7.368 225.019 6.27999H217.339C211.259 6.27999 206.939 8.104 204.379 11.752C201.883 15.336 200.635 21.288 200.635 29.608L194.011 34.792C194.011 27.496 195.323 21.256 197.947 16.072C200.571 10.888 205.051 6.472 211.387 2.824C213.499 1.608 218.235 0.999994 225.595 0.999994ZM332.13 6.472L311.778 6.376C311.33 7.592 311.01 8.68 310.818 9.64C306.594 35.752 304.098 50.92 303.33 55.144C302.434 59.112 300.002 62.984 296.034 66.76L296.418 67.528L301.602 67.816C307.426 67.816 312.098 66.536 315.618 63.976L316.002 64.744C310.818 68.712 307.074 71.496 304.77 73.096L285.57 73L285.186 72.232C290.754 71.08 294.434 65.672 296.226 56.008C297.378 49.992 298.466 43.688 299.49 37.096C300.514 30.44 301.282 25.48 301.794 22.216C303.074 14.216 304.482 8.936 306.018 6.376H295.362C288.962 6.376 284.45 8.136 281.826 11.656C279.266 15.112 277.986 21.096 277.986 29.608L271.361 34.792C271.361 27.496 272.674 21.256 275.298 16.072C277.922 10.888 282.402 6.472 288.738 2.824C290.466 1.8 292.994 1.224 296.322 1.096C299.714 0.967997 304.194 0.903996 309.762 0.903996H324.833C331.426 0.903996 335.65 0.871996 337.506 0.807997L332.13 6.472Z" fill="#DC4137"/>
</svg>
