<svg width="2236" height="2590" viewBox="0 0 2236 2590" fill="none" xmlns="http://www.w3.org/2000/svg">
<path d="M759 5C217 984.5 2095.04 1091.6 1901.5 1563.5C1387 2818 804.5 1335.5 8 2585" stroke="#F1E6E6" stroke-width="18"/>
<path d="M1856.72 1206.48C1866.48 1187.34 1915.55 1159.81 1938.87 1148.43L2022.5 1293.59C2043.03 1302.33 2070.06 1313.53 2075.15 1320.43C2093.68 1338.15 2120.43 1440.01 2131.49 1488.72L2117.39 1492.73L2063.85 1491.28L2021.88 1504.34L2041.66 1519.59C2037.56 1561.44 2029.2 1646.08 2028.63 1649.92C2028.05 1653.76 2023.31 1656.97 2021.01 1658.1L1963.59 1671.04L1971.56 1704.39L1977.05 1705.47L1984.82 1720.63C1980.1 1727.18 1954.57 1741.67 1942.39 1748.1L1959.02 1771.23L1954.49 1780.12L1978.33 1804.33C1955.95 1821.18 1937.8 1821.86 1931.53 1820.1L1923.2 1831.36L1909.2 1821.64L1887.78 1840L1760.21 1912.8L1711.21 1946.4L1628.11 1994.49L1571.9 1896.91C1573.52 1894.29 1576.71 1887.13 1576.5 1879.44C1576.29 1871.75 1573.1 1861.34 1571.53 1857.09L1613.4 1595.87L1623.2 1571.58L1631.37 1493.04L1749.2 1261.93L1800.85 1283.96L1807.13 1271.65L1840.64 1243.08C1841.94 1238.86 1846.96 1225.63 1856.72 1206.48Z" fill="#F1E6E6"/>
<path d="M1980.76 1418.84C1979.34 1418.96 1970 1419.06 1968.68 1419.04C1967.94 1419.04 1966.9 1418.96 1966.12 1418.82L1965.94 1419.16C1965.9 1419.26 1965.92 1419.36 1966 1419.44C1966.56 1419.98 1967.44 1420.56 1968.24 1420.86C1968.78 1420.7 1969.98 1420.5 1970.52 1420.46C1970.96 1420.42 1972.42 1420.4 1974.14 1420.36V1421.3C1974.14 1421.66 1974.16 1422.12 1974.22 1422.54C1972.9 1422.56 1971.72 1422.58 1971.28 1422.58C1970.62 1422.58 1969.7 1422.52 1968.98 1422.42L1968.8 1422.76C1968.76 1422.86 1968.78 1422.94 1968.88 1423.02C1969.42 1423.5 1970.16 1423.98 1970.9 1424.26C1971.4 1424.1 1972.32 1423.94 1972.84 1423.92C1973.62 1423.86 1976.7 1423.82 1978.28 1423.86V1426.32C1978.28 1427 1978.38 1428.3 1978.52 1428.88H1979.9C1980.26 1428.16 1980.56 1426.74 1980.56 1425.8L1980.6 1423.9L1980.88 1423.06C1980.92 1422.92 1980.92 1422.84 1980.82 1422.76C1980.6 1422.6 1980 1422.26 1979.68 1422.1C1979.56 1422.06 1979.38 1422.06 1979.28 1422.1L1978.56 1422.42C1978.1 1422.46 1977.2 1422.48 1976.16 1422.5C1976.34 1422 1976.44 1421.4 1976.44 1420.86V1420.34C1978.64 1420.3 1980.72 1420.3 1981.36 1420.3C1982 1420.3 1983.38 1420.34 1983.9 1420.4C1984.16 1420.26 1984.5 1419.8 1984.5 1419.32C1984.5 1419.08 1984.36 1418.92 1984.16 1418.86C1983.66 1418.68 1982.46 1418.5 1981.62 1418.46L1980.76 1418.84ZM1970.24 1416.4C1970.24 1416.78 1970.32 1417.4 1970.5 1417.8H1971.8C1971.94 1417.68 1972.1 1417.5 1972.22 1417.22C1974.26 1417.18 1978.7 1417.16 1980.54 1417.16C1980.68 1417 1980.78 1416.68 1980.78 1416.3C1980.78 1416.16 1980.72 1416.08 1980.6 1416.02L1980.26 1415.86C1980.4 1415.4 1980.52 1414.6 1980.52 1413.96L1980.56 1411.52L1980.6 1410.58C1980.6 1410.38 1980.54 1410.24 1980.34 1410.16C1979.8 1409.94 1978.38 1409.66 1977.64 1409.62C1977.44 1409.6 1977.38 1409.64 1977.32 1409.74L1977.1 1410.38C1977.56 1410.58 1978.04 1410.88 1978.26 1411.18V1412.62L1972.48 1412.66V1412.2L1972.5 1411.2C1972.5 1410.94 1972.42 1410.82 1972.22 1410.76C1971.66 1410.6 1970.1 1410.44 1969.4 1410.46C1969.18 1410.46 1969.12 1410.52 1969.1 1410.58L1968.92 1411.22C1969.4 1411.38 1969.96 1411.7 1970.18 1411.98L1970.24 1416.4ZM1978.26 1414.02V1415.78L1972.42 1415.82L1972.46 1414.06L1978.26 1414.02ZM1994.82 1419.64C1994.98 1419.82 1995.22 1420 1995.4 1420.04C1995.76 1420.14 1996.28 1419.92 1996.44 1419.54C1996.52 1419.36 1996.48 1419.14 1996.32 1418.8C1996.12 1418.4 1995.66 1417.68 1995.3 1417.24L1994.22 1416.92L1992.44 1415.32C1992.96 1414.46 1993.36 1413.56 1993.58 1412.7C1993.62 1412.54 1993.66 1412.36 1993.66 1412.16C1993.66 1411.98 1993.52 1411.8 1993.32 1411.7C1992.76 1411.4 1991.32 1410.96 1990.46 1410.86C1990.3 1410.84 1990.2 1410.86 1990.16 1410.96L1989.84 1411.58C1990.34 1411.82 1990.78 1412.24 1990.98 1412.6C1990.36 1415.16 1988.56 1418 1985.9 1420.36C1985.8 1420.46 1985.8 1420.56 1985.86 1420.64L1986.22 1420.96C1986.3 1421.02 1986.4 1421.02 1986.52 1420.94C1988.62 1419.72 1990.36 1418.18 1991.62 1416.54L1994.82 1419.64ZM1996.64 1426.62C1995.38 1426.62 1994.46 1425.88 1994.46 1424.58C1994.46 1423.26 1995.38 1422.52 1996.64 1422.52C1997.88 1422.52 1998.82 1423.26 1998.82 1424.58C1998.82 1425.88 1997.88 1426.62 1996.64 1426.62ZM1996.64 1420.98C1994.12 1420.98 1992.12 1422.36 1992.12 1424.58C1992.12 1426.94 1994.12 1428.42 1996.64 1428.42C1999.14 1428.42 2001.16 1426.94 2001.16 1424.58C2001.16 1422.36 1999.14 1420.98 1996.64 1420.98ZM1997.54 1410.2C1998.22 1410.46 1998.84 1410.9 1999.1 1411.34V1414.5C1998.24 1414.54 1997.14 1414.56 1996.6 1414.56C1996.04 1414.56 1995.32 1414.52 1994.82 1414.44L1994.66 1414.72C1994.6 1414.82 1994.62 1414.9 1994.7 1414.98C1995.14 1415.44 1995.68 1415.88 1996.3 1416.24C1996.62 1416.1 1997.2 1415.94 1997.52 1415.9C1997.82 1415.86 1998.5 1415.82 1999.1 1415.8V1417.66C1999.1 1418.44 1999.22 1420.42 1999.36 1421.06H2000.7C2001.1 1420.1 2001.42 1418.16 2001.42 1417.06V1411.7L2001.5 1410.52C2001.5 1410.26 2001.42 1410.08 2001.22 1409.98C2000.52 1409.68 1999.02 1409.38 1998.08 1409.34C1997.88 1409.34 1997.82 1409.4 1997.78 1409.48L1997.54 1410.2ZM2019.39 1418.96C2018.83 1419 2017.07 1419.06 2015.03 1419.08V1417.04L2019.33 1416.96C2019.49 1416.96 2019.61 1416.92 2019.69 1416.84C2019.83 1416.72 2020.01 1416.36 2020.01 1415.92C2020.01 1415.72 2019.87 1415.56 2019.65 1415.52C2019.19 1415.42 2018.23 1415.36 2017.57 1415.36L2016.99 1415.66C2015.77 1415.74 2012.51 1415.78 2011.23 1415.78C2010.89 1415.78 2010.75 1415.62 2010.75 1415.28V1412.38L2019.09 1412.24C2019.27 1412.24 2019.39 1412.22 2019.49 1412.12C2019.63 1411.96 2019.77 1411.62 2019.77 1411.14C2019.77 1410.96 2019.63 1410.8 2019.41 1410.74C2018.91 1410.64 2017.97 1410.58 2017.33 1410.58L2016.69 1410.92C2015.61 1410.98 2012.13 1411.04 2010.79 1411.02C2010.11 1410.9 2008.27 1410.82 2007.49 1410.82C2007.37 1410.82 2007.31 1410.88 2007.27 1410.96L2007.11 1411.58C2007.65 1411.76 2008.11 1412.04 2008.41 1412.34V1415.34C2008.41 1416.52 2009.01 1417.16 2010.51 1417.12L2012.75 1417.08V1419.12C2010.27 1419.16 2007.93 1419.16 2007.31 1419.16C2006.57 1419.16 2005.53 1419.08 2004.75 1418.94L2004.57 1419.28C2004.53 1419.38 2004.55 1419.48 2004.63 1419.56C2005.19 1420.1 2006.07 1420.68 2006.87 1420.98C2007.41 1420.82 2008.61 1420.62 2009.15 1420.58C2010.33 1420.5 2018.61 1420.4 2019.99 1420.42C2020.63 1420.42 2022.01 1420.46 2022.53 1420.52C2022.79 1420.38 2023.13 1419.94 2023.13 1419.44C2023.13 1419.2 2022.99 1419.04 2022.79 1418.98C2022.29 1418.8 2021.09 1418.62 2020.25 1418.58L2019.39 1418.96ZM2013.79 1421.78C2011.27 1421.78 2009.27 1423.14 2009.27 1425.14C2009.27 1427.3 2011.27 1428.76 2013.79 1428.76C2016.31 1428.76 2018.33 1427.3 2018.33 1425.14C2018.33 1423.14 2016.31 1421.78 2013.79 1421.78ZM2013.79 1427.02C2012.55 1427.02 2011.59 1426.32 2011.59 1425.14C2011.59 1423.96 2012.55 1423.24 2013.79 1423.24C2015.05 1423.24 2015.99 1423.96 2015.99 1425.14C2015.99 1426.32 2015.05 1427.02 2013.79 1427.02ZM2037.89 1426.92C2036.67 1426.98 2033.75 1427 2032.49 1426.98C2032.15 1426.98 2032.01 1426.84 2032.01 1426.48V1425.36L2032.05 1424.32C2032.05 1424.04 2031.93 1423.88 2031.69 1423.82C2031.03 1423.68 2029.55 1423.58 2028.69 1423.58C2028.53 1423.58 2028.43 1423.66 2028.41 1423.76L2028.27 1424.36C2028.79 1424.52 2029.33 1424.8 2029.65 1425.08V1426.56C2029.65 1427.74 2030.25 1428.34 2031.75 1428.34L2040.49 1428.28C2040.65 1428.28 2040.79 1428.24 2040.87 1428.16C2041.01 1428.02 2041.19 1427.62 2041.19 1427.06C2041.19 1426.84 2041.05 1426.7 2040.83 1426.64C2040.37 1426.54 2039.39 1426.46 2038.69 1426.48L2037.89 1426.92ZM2029.67 1421C2029.67 1421.58 2029.77 1422.52 2029.93 1422.98H2031.41C2031.75 1422.44 2031.99 1421.36 2031.99 1420.54V1420.02C2033.69 1419.76 2035.41 1419.42 2036.49 1419.1C2036.61 1419.06 2036.67 1419.02 2036.65 1418.88L2036.55 1418.28C2036.53 1418.18 2036.45 1418.14 2036.31 1418.16C2034.03 1418.6 2029.15 1419 2026.61 1419.02C2025.87 1419.02 2024.97 1418.98 2024.25 1418.86L2024.09 1419.18C2024.05 1419.3 2024.07 1419.36 2024.15 1419.44C2024.71 1419.98 2025.53 1420.54 2026.25 1420.9C2026.67 1420.74 2027.57 1420.52 2028.05 1420.5C2028.53 1420.46 2029.07 1420.42 2029.67 1420.34V1421ZM2030.65 1417.76C2032.99 1417.76 2035.01 1416.46 2035.01 1414.36C2035.01 1412.24 2032.99 1410.94 2030.65 1410.94C2028.29 1410.94 2026.29 1412.24 2026.29 1414.36C2026.29 1416.46 2028.29 1417.76 2030.65 1417.76ZM2030.65 1412.44C2031.81 1412.44 2032.77 1413.14 2032.77 1414.36C2032.77 1415.58 2031.81 1416.24 2030.65 1416.24C2029.47 1416.24 2028.53 1415.58 2028.53 1414.36C2028.53 1413.14 2029.47 1412.44 2030.65 1412.44ZM2037.71 1420.84C2036.85 1420.92 2035.73 1420.98 2035.17 1421C2034.63 1421 2033.99 1420.98 2033.53 1420.94L2033.37 1421.24C2033.33 1421.34 2033.35 1421.42 2033.43 1421.5C2033.83 1421.88 2034.31 1422.22 2034.91 1422.5C2035.25 1422.38 2035.83 1422.24 2036.15 1422.2C2036.45 1422.14 2037.15 1422.08 2037.75 1422.04C2037.81 1423 2037.87 1424.02 2037.97 1424.46H2039.27C2039.75 1423.26 2040.03 1421.1 2040.03 1419.64V1411.7L2040.09 1410.52C2040.11 1410.26 2040.03 1410.08 2039.81 1409.98C2039.13 1409.68 2037.61 1409.38 2036.69 1409.34C2036.49 1409.34 2036.41 1409.4 2036.39 1409.48L2036.15 1410.2C2036.83 1410.46 2037.43 1410.9 2037.71 1411.34V1420.84ZM2044.85 1420.68C2044.89 1420.74 2044.99 1420.76 2045.15 1420.72C2047.83 1419.94 2050.35 1418.84 2052.53 1417.5L2058.69 1419.86C2058.95 1419.96 2059.23 1420.02 2059.45 1419.98C2059.83 1419.94 2060.21 1419.56 2060.19 1419.2C2060.19 1419 2060.05 1418.78 2059.75 1418.56C2059.41 1418.28 2058.67 1417.82 2058.13 1417.58L2056.75 1417.5L2053.95 1416.54C2055.31 1415.56 2056.49 1414.48 2057.45 1413.32L2058.17 1412.56C2058.27 1412.44 2058.27 1412.3 2058.15 1412.22C2057.85 1412.06 2057.09 1411.76 2056.69 1411.6C2056.53 1411.56 2056.33 1411.56 2056.21 1411.6L2055.23 1412C2054.09 1412.06 2049.23 1412.14 2048.19 1412.12C2047.53 1412.12 2046.59 1412.06 2045.87 1411.96L2045.71 1412.28C2045.65 1412.38 2045.67 1412.46 2045.77 1412.56C2046.29 1413.04 2047.07 1413.52 2047.79 1413.82C2048.29 1413.66 2049.19 1413.5 2049.69 1413.48C2050.33 1413.44 2052.57 1413.4 2054.15 1413.4C2052.09 1415.88 2048.73 1418.16 2044.65 1420.04C2044.49 1420.1 2044.49 1420.2 2044.57 1420.3L2044.85 1420.68ZM2058.03 1424C2057.49 1424.04 2055.75 1424.08 2053.75 1424.12L2053.81 1421.72L2053.93 1420.56C2053.95 1420.34 2053.87 1420.2 2053.65 1420.14C2053.11 1419.98 2051.47 1419.84 2050.77 1419.84C2050.53 1419.84 2050.49 1419.9 2050.47 1419.96L2050.33 1420.6C2050.79 1420.74 2051.31 1421.08 2051.53 1421.36L2051.55 1424.16C2049.01 1424.2 2046.57 1424.2 2045.95 1424.2C2045.21 1424.2 2044.17 1424.12 2043.39 1423.98L2043.21 1424.32C2043.17 1424.42 2043.19 1424.54 2043.27 1424.6C2043.83 1425.14 2044.71 1425.72 2045.51 1426.02C2046.05 1425.86 2047.25 1425.66 2047.79 1425.62C2048.97 1425.54 2057.25 1425.46 2058.63 1425.46C2059.27 1425.46 2060.65 1425.5 2061.17 1425.56C2061.43 1425.44 2061.77 1424.98 2061.77 1424.48C2061.77 1424.24 2061.63 1424.08 2061.43 1424.02C2060.93 1423.84 2059.73 1423.66 2058.89 1423.62L2058.03 1424ZM1981.92 1446.64L1981.22 1446.68V1440.68L1981.3 1439.52C1981.32 1439.26 1981.22 1439.08 1981 1438.98C1980.34 1438.68 1978.84 1438.38 1977.94 1438.34C1977.74 1438.34 1977.68 1438.4 1977.64 1438.48L1977.4 1439.2C1978.06 1439.46 1978.64 1439.88 1978.92 1440.32V1453.3C1978.92 1454.22 1979.04 1456.94 1979.18 1457.7H1980.46C1980.92 1456.34 1981.22 1453.9 1981.22 1452.6V1448.1L1983.96 1448.04C1984.16 1448.04 1984.42 1447.96 1984.54 1447.82C1984.7 1447.66 1984.82 1447.22 1984.78 1446.78C1984.76 1446.56 1984.6 1446.38 1984.36 1446.32C1984 1446.24 1983.14 1446.2 1982.56 1446.22L1981.92 1446.64ZM1976.66 1448.48L1975.74 1447.48C1976.5 1446.1 1977.06 1444.68 1977.32 1443.36L1977.64 1442.56C1977.7 1442.44 1977.7 1442.3 1977.6 1442.24C1977.4 1442.08 1976.82 1441.74 1976.5 1441.6C1976.4 1441.54 1976.2 1441.54 1976.1 1441.6L1975.32 1442C1974.82 1442.04 1973.48 1442.04 1973.08 1442.04C1972.9 1442.04 1972.7 1442.04 1972.48 1442.02C1972.24 1441.88 1971.94 1441.72 1971.74 1441.62C1971.64 1441.56 1971.46 1441.56 1971.34 1441.62L1970.54 1442.02C1969.96 1442.04 1968.48 1442.06 1968.04 1442.06C1967.68 1442.06 1967.16 1442.04 1966.76 1441.98L1966.6 1442.24C1966.56 1442.32 1966.56 1442.4 1966.66 1442.5C1966.96 1442.86 1967.42 1443.24 1967.86 1443.52C1968.12 1443.4 1968.68 1443.32 1968.98 1443.3C1969.14 1443.28 1969.7 1443.28 1970.14 1443.28C1969.5 1445.76 1968 1448.94 1965.92 1451.14C1965.86 1451.28 1965.88 1451.34 1965.98 1451.42L1966.36 1451.7C1966.44 1451.74 1966.56 1451.7 1966.66 1451.6C1968 1450.62 1969.24 1449.36 1970.22 1447.98L1971.34 1449.48C1971.46 1449.68 1971.64 1449.88 1971.82 1449.94C1971.9 1449.98 1972 1449.98 1972.1 1449.98C1971.4 1451.12 1970.6 1452.2 1969.72 1453.16C1969.68 1453.3 1969.7 1453.36 1969.78 1453.44L1970.14 1453.72C1970.22 1453.76 1970.34 1453.74 1970.46 1453.64C1972.18 1452.34 1973.72 1450.64 1974.92 1448.84L1976.7 1451.08C1976.84 1451.28 1977.04 1451.48 1977.2 1451.56C1977.52 1451.7 1978.08 1451.54 1978.28 1451.2C1978.38 1451.04 1978.38 1450.8 1978.28 1450.48C1978.16 1450.06 1977.8 1449.34 1977.5 1448.84L1976.66 1448.48ZM1971.66 1447.28L1971.08 1446.68C1971.74 1445.58 1972.24 1444.44 1972.52 1443.4L1972.58 1443.24C1972.7 1443.34 1972.8 1443.42 1972.92 1443.48C1973.16 1443.4 1973.62 1443.32 1973.88 1443.3C1974.02 1443.28 1974.5 1443.28 1974.88 1443.28C1974.5 1444.98 1973.78 1446.9 1972.8 1448.76C1972.68 1448.4 1972.48 1447.92 1972.32 1447.58L1971.66 1447.28ZM2001.24 1444.66L2000.14 1444.72V1440.7L2000.22 1439.52C2000.24 1439.26 2000.14 1439.08 1999.94 1438.98C1999.24 1438.68 1997.74 1438.38 1996.8 1438.34C1996.6 1438.34 1996.54 1438.4 1996.5 1438.48L1996.26 1439.2C1996.94 1439.46 1997.56 1439.9 1997.84 1440.34V1446.88C1997.84 1447.7 1997.94 1449.7 1998.08 1450.36H1999.42C1999.84 1449.4 2000.14 1447.46 2000.14 1446.3V1446.12L2003.28 1446.04C2003.48 1446.04 2003.74 1445.98 2003.86 1445.84C2004.02 1445.68 2004.14 1445.24 2004.1 1444.78C2004.08 1444.56 2003.92 1444.38 2003.68 1444.34C2003.32 1444.26 2002.46 1444.22 2001.88 1444.24L2001.24 1444.66ZM1995.5 1450.24C1993.04 1450.24 1991 1451.62 1991 1453.78C1991 1456.1 1993.04 1457.58 1995.5 1457.58C1997.98 1457.58 2000.02 1456.1 2000.02 1453.78C2000.02 1451.62 1997.98 1450.24 1995.5 1450.24ZM1995.5 1455.76C1994.3 1455.76 1993.36 1455.02 1993.36 1453.78C1993.36 1452.54 1994.3 1451.8 1995.5 1451.8C1996.72 1451.8 1997.66 1452.54 1997.66 1453.78C1997.66 1455.02 1996.72 1455.76 1995.5 1455.76ZM1995.24 1448.94C1995.4 1449.1 1995.64 1449.26 1995.82 1449.28C1996.18 1449.36 1996.68 1449.12 1996.8 1448.74C1996.86 1448.58 1996.84 1448.38 1996.66 1448.06C1996.46 1447.7 1996 1447.04 1995.64 1446.64L1994.7 1446.48L1993 1445.18C1993.84 1444.2 1994.52 1443.16 1995.02 1442.14L1995.5 1441.4C1995.58 1441.28 1995.56 1441.14 1995.46 1441.08C1995.18 1440.92 1994.5 1440.62 1994.14 1440.48C1994 1440.42 1993.82 1440.42 1993.68 1440.48L1992.86 1440.84C1991.92 1440.88 1988.88 1440.92 1988.16 1440.92C1987.58 1440.92 1986.8 1440.88 1986.2 1440.78L1986.04 1441.06C1985.98 1441.14 1986 1441.22 1986.08 1441.32C1986.54 1441.76 1987.2 1442.26 1987.82 1442.56C1988.24 1442.4 1988.98 1442.26 1989.38 1442.24C1989.78 1442.2 1991.22 1442.18 1992.22 1442.2C1990.96 1444.8 1988.56 1447.72 1985.48 1449.88C1985.4 1449.98 1985.4 1450.06 1985.48 1450.16L1985.82 1450.5C1985.9 1450.56 1986 1450.54 1986.14 1450.46C1988.38 1449.4 1990.42 1447.92 1992.04 1446.26L1995.24 1448.94ZM2018.73 1455.6C2017.57 1455.64 2014.77 1455.68 2013.57 1455.66C2013.23 1455.66 2013.09 1455.5 2013.09 1455.14V1453.18L2013.13 1452.12C2013.13 1451.84 2013.01 1451.68 2012.77 1451.64C2012.11 1451.48 2010.63 1451.38 2009.79 1451.38C2009.61 1451.38 2009.51 1451.46 2009.49 1451.56L2009.35 1452.16C2009.87 1452.32 2010.41 1452.62 2010.73 1452.9V1455.22C2010.73 1456.42 2011.31 1457.02 2012.83 1457.02L2021.33 1456.96C2021.49 1456.96 2021.61 1456.92 2021.71 1456.84C2021.85 1456.7 2022.03 1456.3 2022.03 1455.74C2022.03 1455.52 2021.89 1455.38 2021.67 1455.32C2021.21 1455.22 2020.21 1455.14 2019.53 1455.16L2018.73 1455.6ZM2014.77 1449.22C2014.93 1449.06 2015.07 1448.68 2015.07 1448.2C2015.07 1448.06 2015.01 1447.96 2014.87 1447.88L2014.63 1447.74C2014.67 1447.46 2014.71 1447.14 2014.75 1446.82C2015.03 1447.1 2015.37 1447.36 2015.75 1447.58C2016.11 1447.48 2016.59 1447.38 2016.91 1447.36C2017.21 1447.34 2017.83 1447.32 2018.41 1447.32V1448.54C2018.41 1449.52 2018.49 1451.92 2018.65 1452.68H2019.97C2020.43 1451.5 2020.73 1449.4 2020.73 1447.84V1440.7L2020.79 1439.52C2020.81 1439.26 2020.71 1439.08 2020.51 1438.98C2019.81 1438.68 2018.31 1438.38 2017.39 1438.34C2017.19 1438.34 2017.11 1438.4 2017.07 1438.48L2016.85 1439.2C2017.51 1439.46 2018.13 1439.9 2018.41 1440.34V1442.54C2017.57 1442.6 2016.47 1442.62 2015.91 1442.62C2015.65 1442.62 2015.35 1442.6 2015.09 1442.58L2015.37 1441.72C2015.41 1441.56 2015.39 1441.46 2015.33 1441.4C2015.05 1441.22 2014.39 1440.9 2014.05 1440.76C2013.93 1440.7 2013.77 1440.7 2013.65 1440.76L2012.77 1441.2C2011.79 1441.26 2009.75 1441.28 2008.77 1441.28C2007.95 1441.12 2006.51 1441.02 2005.69 1441.02C2005.55 1441.02 2005.49 1441.06 2005.45 1441.14L2005.29 1441.76C2005.73 1441.92 2006.15 1442.2 2006.37 1442.48L2006.79 1448.7C2006.83 1449.2 2006.93 1449.76 2007.09 1450.18H2008.35C2008.57 1449.92 2008.71 1449.62 2008.79 1449.28L2014.77 1449.22ZM2008.77 1442.68C2009.97 1442.64 2011.47 1442.62 2012.69 1442.62L2012.67 1447.72L2012.29 1447.82C2011.43 1447.86 2009.87 1447.88 2008.85 1447.86L2008.77 1442.68ZM2018.41 1446.04C2017.59 1446.08 2016.57 1446.1 2016.05 1446.1C2015.65 1446.1 2015.21 1446.08 2014.83 1446.02C2014.91 1445.26 2014.97 1444.46 2015.03 1443.68C2015.21 1443.84 2015.41 1443.96 2015.61 1444.1C2015.95 1443.98 2016.45 1443.9 2016.77 1443.86C2017.09 1443.84 2017.79 1443.82 2018.41 1443.82V1446.04ZM2036.09 1439.18C2036.79 1439.46 2037.41 1439.9 2037.71 1440.36V1446.12C2036.73 1446.18 2035.29 1446.22 2034.63 1446.22C2034.15 1446.22 2033.53 1446.2 2033.03 1446.14C2033.61 1445.16 2034.05 1444.18 2034.33 1443.2L2034.73 1442.5C2034.79 1442.38 2034.79 1442.26 2034.69 1442.18C2034.43 1442 2033.77 1441.66 2033.43 1441.5C2033.31 1441.46 2033.11 1441.46 2032.99 1441.5L2032.21 1441.9C2031.23 1441.96 2027.99 1442 2027.25 1442C2026.69 1442 2025.89 1441.96 2025.27 1441.86L2025.11 1442.14C2025.05 1442.22 2025.07 1442.3 2025.17 1442.4C2025.63 1442.82 2026.29 1443.28 2026.95 1443.58C2027.37 1443.42 2028.17 1443.28 2028.59 1443.26C2029.03 1443.22 2030.63 1443.2 2031.67 1443.2C2030.69 1446.34 2028.17 1449.88 2024.75 1452.56C2024.65 1452.66 2024.67 1452.74 2024.75 1452.84L2025.11 1453.18C2025.19 1453.22 2025.29 1453.22 2025.41 1453.16C2028.41 1451.58 2030.99 1449.24 2032.65 1446.74C2033.11 1447.18 2033.67 1447.58 2034.31 1447.94C2034.65 1447.78 2035.31 1447.62 2035.63 1447.58C2036.01 1447.54 2036.95 1447.48 2037.71 1447.46V1453.28C2037.71 1454.22 2037.81 1456.96 2037.95 1457.7H2039.25C2039.73 1456.34 2040.03 1453.88 2040.03 1452.56V1440.74L2040.11 1439.52C2040.11 1439.26 2040.03 1439.08 2039.81 1438.98C2039.11 1438.68 2037.55 1438.38 2036.61 1438.34C2036.41 1438.34 2036.35 1438.4 2036.31 1438.48L2036.09 1439.18ZM2055.35 1439.18C2056.07 1439.46 2056.69 1439.9 2056.99 1440.36V1449.78C2054.49 1450.46 2050.87 1450.86 2048.57 1450.88C2048.29 1450.88 2048.17 1450.74 2048.17 1450.48V1447.38L2053.85 1447.2C2053.99 1447.04 2054.11 1446.68 2054.11 1446.34C2054.11 1446.22 2054.05 1446.12 2053.95 1446.08L2053.51 1445.84C2053.73 1445.16 2053.99 1443.68 2054.03 1442.84L2054.31 1442.02C2054.35 1441.9 2054.33 1441.78 2054.23 1441.72C2053.97 1441.56 2053.35 1441.26 2053.05 1441.14C2052.91 1441.08 2052.75 1441.08 2052.63 1441.14L2051.79 1441.5C2050.95 1441.54 2047.75 1441.6 2046.99 1441.58C2046.49 1441.58 2045.59 1441.54 2045.03 1441.42L2044.85 1441.72C2044.83 1441.82 2044.83 1441.9 2044.91 1441.98C2045.39 1442.42 2045.99 1442.86 2046.63 1443.2C2047.13 1443.06 2047.85 1442.92 2048.27 1442.9C2048.73 1442.86 2050.59 1442.84 2051.49 1442.84C2051.53 1443.38 2051.53 1445.3 2051.47 1445.84L2051.11 1445.92C2050.63 1445.98 2048.97 1446.04 2048.21 1446.04C2047.53 1445.96 2045.75 1445.92 2045.01 1445.92C2044.87 1445.92 2044.79 1445.98 2044.77 1446.06L2044.65 1446.62C2045.13 1446.76 2045.57 1447 2045.85 1447.28V1450.32C2045.85 1450.76 2045.89 1451.16 2045.97 1451.38C2046.23 1452.22 2046.87 1452.74 2047.81 1452.74C2048.01 1452.74 2048.31 1452.72 2048.59 1452.7C2050.93 1452.5 2054.35 1451.88 2056.99 1451.02V1453.28C2056.99 1454.22 2057.09 1456.96 2057.23 1457.7H2058.53C2059.01 1456.34 2059.29 1453.88 2059.29 1452.56V1440.74L2059.37 1439.52C2059.39 1439.26 2059.31 1439.08 2059.09 1438.98C2058.37 1438.68 2056.83 1438.38 2055.89 1438.34C2055.69 1438.34 2055.63 1438.4 2055.59 1438.48L2055.35 1439.18Z" fill="#EFD1D1"/>
<path d="M1847.92 1721.48L1846.82 1721.54V1717.7L1846.9 1716.52C1846.92 1716.26 1846.82 1716.08 1846.62 1715.98C1845.92 1715.68 1844.42 1715.38 1843.48 1715.34C1843.28 1715.34 1843.22 1715.4 1843.18 1715.48L1842.94 1716.2C1843.62 1716.46 1844.24 1716.9 1844.52 1717.34V1723.32C1844.52 1724.1 1844.62 1726.04 1844.76 1726.68H1846.1C1846.5 1725.82 1846.78 1724.1 1846.82 1722.94L1849.96 1722.86C1850.16 1722.86 1850.42 1722.8 1850.54 1722.66C1850.7 1722.5 1850.82 1722.06 1850.78 1721.6C1850.76 1721.38 1850.6 1721.2 1850.36 1721.16C1850 1721.08 1849.14 1721.04 1848.56 1721.06L1847.92 1721.48ZM1844.56 1727.56C1843.46 1727.64 1840.74 1727.68 1839.6 1727.7C1838.78 1727.58 1837.32 1727.46 1836.54 1727.46C1836.4 1727.46 1836.34 1727.52 1836.32 1727.58L1836.14 1728.2C1836.58 1728.38 1837.04 1728.66 1837.28 1728.94L1837.6 1733.34C1837.64 1733.78 1837.76 1734.28 1837.92 1734.64H1839.18C1839.38 1734.44 1839.52 1734.24 1839.6 1733.98L1846.48 1733.9C1846.68 1733.72 1846.84 1733.32 1846.84 1732.86C1846.84 1732.72 1846.78 1732.62 1846.66 1732.54L1846.26 1732.32C1846.48 1731.26 1846.66 1730.06 1846.76 1729L1847.04 1728.1C1847.08 1727.96 1847.08 1727.86 1846.98 1727.8C1846.76 1727.64 1846.14 1727.34 1845.84 1727.22C1845.7 1727.16 1845.54 1727.16 1845.42 1727.22L1844.56 1727.56ZM1839.64 1729.18C1841.08 1729.12 1842.9 1729.08 1844.42 1729.06L1844.36 1732.3L1843.94 1732.4C1842.86 1732.48 1840.96 1732.5 1839.68 1732.48L1839.64 1729.18ZM1841.44 1725.68C1841.6 1725.84 1841.84 1726.04 1842.02 1726.08C1842.36 1726.18 1842.88 1725.96 1843.04 1725.58C1843.1 1725.42 1843.08 1725.2 1842.92 1724.84C1842.72 1724.44 1842.28 1723.72 1841.92 1723.26L1840.76 1722.92L1838.8 1721.12C1839.26 1720.32 1839.6 1719.5 1839.82 1718.7C1839.86 1718.56 1839.9 1718.38 1839.9 1718.16C1839.9 1718 1839.76 1717.82 1839.54 1717.7C1839 1717.4 1837.56 1716.98 1836.7 1716.88C1836.52 1716.86 1836.44 1716.88 1836.4 1716.98L1836.08 1717.58C1836.56 1717.84 1837.02 1718.26 1837.22 1718.62C1836.6 1721.16 1834.8 1723.98 1832.18 1726.32C1832.08 1726.42 1832.08 1726.52 1832.14 1726.58L1832.5 1726.92C1832.6 1726.96 1832.68 1726.96 1832.8 1726.9C1834.96 1725.66 1836.74 1724.04 1838 1722.34L1841.44 1725.68ZM1866.08 1723.08C1865.88 1723.1 1865.52 1723.12 1865.06 1723.12C1865.74 1721.76 1866.3 1719.86 1866.48 1718.42L1866.84 1717.52C1866.92 1717.38 1866.9 1717.28 1866.8 1717.22C1866.54 1717.04 1865.86 1716.72 1865.5 1716.58C1865.38 1716.52 1865.2 1716.52 1865.08 1716.58L1864.14 1716.98C1862.78 1717.04 1857.6 1717.12 1856.56 1717.1C1855.9 1717.1 1854.96 1717.04 1854.22 1716.92L1854.06 1717.24C1854.02 1717.36 1854.04 1717.42 1854.14 1717.52C1854.66 1718.02 1855.44 1718.54 1856.16 1718.86C1856.68 1718.7 1857.62 1718.54 1858.16 1718.52C1859.02 1718.46 1862.26 1718.4 1863.9 1718.42C1863.88 1719.76 1863.7 1721.84 1863.4 1723.18C1860.08 1723.24 1854.96 1723.3 1854 1723.28C1853.26 1723.26 1852.22 1723.18 1851.44 1723.06L1851.26 1723.4C1851.22 1723.48 1851.24 1723.6 1851.32 1723.68C1851.88 1724.2 1852.76 1724.8 1853.56 1725.1C1854.1 1724.94 1855.3 1724.72 1855.84 1724.68C1856.28 1724.66 1857.74 1724.62 1859.46 1724.6V1725.92C1859.46 1726.44 1859.5 1727.3 1859.56 1727.98C1858.14 1728 1856.86 1728.02 1856.4 1728.02C1855.74 1728.02 1854.82 1727.96 1854.1 1727.86L1853.92 1728.2C1853.88 1728.3 1853.9 1728.38 1854 1728.48C1854.52 1728.94 1855.28 1729.42 1856.02 1729.72C1856.5 1729.54 1857.44 1729.38 1857.96 1729.36C1858.8 1729.3 1862.1 1729.26 1863.76 1729.3V1732.3C1863.76 1732.98 1863.86 1734.28 1864 1734.86H1865.38C1865.74 1734.14 1866.04 1732.7 1866.04 1731.78L1866.1 1729.34L1866.36 1728.5C1866.4 1728.36 1866.4 1728.28 1866.3 1728.2C1866.08 1728.04 1865.48 1727.7 1865.16 1727.56C1865.06 1727.5 1864.88 1727.5 1864.76 1727.56L1864.04 1727.86C1863.56 1727.9 1862.54 1727.92 1861.4 1727.94C1861.6 1727.14 1861.76 1726.1 1861.76 1725.38V1724.56C1863.96 1724.54 1866.04 1724.52 1866.68 1724.52C1867.32 1724.52 1868.7 1724.56 1869.22 1724.62C1869.48 1724.5 1869.82 1724.04 1869.82 1723.54C1869.82 1723.32 1869.68 1723.16 1869.48 1723.1C1868.98 1722.9 1867.78 1722.74 1866.94 1722.7L1866.08 1723.08ZM1880.83 1725.92L1878.95 1724.14C1879.93 1722.88 1880.71 1721.58 1881.25 1720.28L1881.71 1719.58C1881.81 1719.46 1881.81 1719.32 1881.69 1719.26C1881.43 1719.1 1880.71 1718.78 1880.35 1718.64C1880.23 1718.6 1880.03 1718.6 1879.91 1718.64L1879.07 1719C1878.15 1719.04 1874.87 1719.08 1874.09 1719.08C1873.53 1719.08 1872.75 1719.04 1872.13 1718.96L1871.97 1719.24C1871.93 1719.32 1871.95 1719.4 1872.03 1719.48C1872.49 1719.92 1873.15 1720.4 1873.77 1720.68C1874.17 1720.54 1874.93 1720.4 1875.35 1720.38C1875.79 1720.34 1877.33 1720.32 1878.39 1720.34C1877.23 1723.36 1874.71 1726.8 1871.45 1729.4C1871.33 1729.52 1871.35 1729.6 1871.43 1729.68L1871.83 1730.02C1871.89 1730.06 1871.99 1730.06 1872.13 1729.98C1874.35 1728.74 1876.37 1727.1 1877.97 1725.3L1881.21 1728.74C1881.37 1728.92 1881.61 1729.12 1881.79 1729.18C1882.13 1729.32 1882.65 1729.14 1882.81 1728.78C1882.89 1728.62 1882.87 1728.36 1882.73 1728C1882.55 1727.56 1882.13 1726.78 1881.79 1726.28L1880.83 1725.92ZM1882.71 1716.18C1883.43 1716.46 1884.05 1716.9 1884.35 1717.36V1730.28C1884.35 1731.22 1884.45 1733.96 1884.59 1734.7H1885.89C1886.37 1733.34 1886.65 1730.88 1886.65 1729.56V1717.74L1886.73 1716.52C1886.75 1716.26 1886.67 1716.08 1886.45 1715.98C1885.73 1715.68 1884.19 1715.38 1883.25 1715.34C1883.05 1715.34 1882.99 1715.4 1882.95 1715.48L1882.71 1716.18ZM1908.91 1727.94C1907.61 1728.04 1902.45 1728.14 1901.51 1728.14C1900.85 1728.14 1899.93 1728.08 1899.21 1727.96L1899.03 1728.3C1898.99 1728.42 1899.01 1728.5 1899.11 1728.58C1899.65 1729.06 1900.39 1729.52 1901.13 1729.82C1901.63 1729.64 1902.55 1729.5 1903.07 1729.48C1903.85 1729.42 1907.03 1729.36 1908.63 1729.36V1732.32C1908.63 1733 1908.73 1734.32 1908.87 1734.9H1910.25C1910.61 1734.18 1910.91 1732.74 1910.91 1731.8L1910.95 1729.4L1911.21 1728.58C1911.25 1728.44 1911.25 1728.34 1911.17 1728.26C1910.95 1728.1 1910.35 1727.78 1910.03 1727.62C1909.93 1727.56 1909.75 1727.56 1909.63 1727.62L1908.91 1727.94ZM1905.17 1724.58C1905.23 1724.4 1905.29 1724.16 1905.33 1723.92C1905.55 1724.1 1905.79 1724.26 1906.05 1724.4C1906.39 1724.28 1906.89 1724.18 1907.23 1724.16C1907.53 1724.14 1908.17 1724.1 1908.75 1724.1C1908.79 1725 1908.89 1726.54 1909.01 1727.1H1910.35C1910.77 1726.18 1911.07 1724.32 1911.07 1723.14V1717.7L1911.15 1716.52C1911.15 1716.26 1911.07 1716.08 1910.87 1715.98C1910.17 1715.68 1908.67 1715.38 1907.73 1715.34C1907.53 1715.34 1907.47 1715.4 1907.43 1715.48L1907.19 1716.2C1907.87 1716.46 1908.49 1716.9 1908.75 1717.34V1719.26C1907.93 1719.3 1906.87 1719.32 1906.35 1719.32C1906.09 1719.32 1905.79 1719.3 1905.51 1719.28V1718.88L1905.57 1717.82C1905.59 1717.62 1905.53 1717.48 1905.31 1717.4C1904.77 1717.2 1903.35 1716.94 1902.63 1716.92C1902.41 1716.9 1902.35 1716.94 1902.31 1717.04L1902.09 1717.64C1902.55 1717.82 1903.01 1718.14 1903.23 1718.44V1720.5L1899.13 1720.54V1719.52L1899.17 1718.58C1899.19 1718.34 1899.09 1718.2 1898.91 1718.16C1898.35 1718 1896.89 1717.86 1896.17 1717.88C1895.95 1717.88 1895.87 1717.92 1895.85 1718L1895.69 1718.6C1896.13 1718.74 1896.63 1719.06 1896.83 1719.32L1896.95 1725.3C1896.95 1725.7 1897.05 1726.32 1897.23 1726.76H1898.47C1898.65 1726.6 1898.85 1726.34 1898.97 1725.94C1900.57 1725.9 1904.03 1725.86 1905.49 1725.86C1905.63 1725.74 1905.75 1725.36 1905.75 1724.98C1905.75 1724.84 1905.69 1724.76 1905.59 1724.72L1905.17 1724.58ZM1908.75 1722.82C1907.91 1722.86 1906.87 1722.88 1906.35 1722.88C1906.07 1722.88 1905.75 1722.86 1905.45 1722.84V1722.62L1905.49 1720.48C1905.67 1720.62 1905.85 1720.74 1906.05 1720.86C1906.39 1720.72 1906.91 1720.62 1907.23 1720.6C1907.53 1720.58 1908.17 1720.54 1908.75 1720.54V1722.82ZM1903.23 1721.84V1724.5L1899.09 1724.56L1899.11 1721.9L1903.23 1721.84ZM1917.33 1716.76C1917.27 1716.84 1917.27 1716.92 1917.33 1717.04C1917.67 1717.56 1918.21 1718.2 1918.63 1718.48C1918.77 1718.58 1918.91 1718.6 1919.15 1718.58C1919.97 1718.5 1921.41 1718.48 1922.25 1718.46C1922.39 1718.46 1922.53 1718.44 1922.63 1718.34C1922.85 1718.12 1922.91 1717.42 1922.71 1717.1C1922.65 1716.96 1922.53 1716.9 1922.29 1716.9C1921.05 1716.92 1919.23 1716.84 1917.51 1716.52L1917.33 1716.76ZM1923.23 1719.38C1922.37 1719.44 1917.49 1719.54 1916.67 1719.54C1916.15 1719.54 1915.29 1719.48 1914.67 1719.36L1914.51 1719.66C1914.47 1719.72 1914.49 1719.8 1914.55 1719.88C1914.99 1720.32 1915.65 1720.84 1916.27 1721.12C1916.65 1721.02 1917.39 1720.88 1917.81 1720.86C1918.53 1720.8 1922.97 1720.7 1923.71 1720.7C1924.19 1720.7 1925.21 1720.72 1925.57 1720.76C1925.77 1720.62 1926.05 1720.2 1926.05 1719.72C1926.05 1719.56 1925.97 1719.42 1925.81 1719.36C1925.43 1719.22 1924.53 1719.1 1923.93 1719.06L1923.23 1719.38ZM1918.65 1724.42C1918.65 1723.34 1919.51 1722.7 1920.61 1722.7C1921.73 1722.7 1922.59 1723.34 1922.59 1724.42C1922.59 1725.5 1921.73 1726.14 1920.61 1726.14C1919.51 1726.14 1918.65 1725.5 1918.65 1724.42ZM1930.21 1723.62L1929.11 1723.68V1717.74L1929.21 1716.52C1929.21 1716.26 1929.13 1716.08 1928.91 1715.98C1928.19 1715.68 1926.65 1715.38 1925.71 1715.34C1925.51 1715.34 1925.45 1715.4 1925.41 1715.48L1925.17 1716.18C1925.89 1716.46 1926.51 1716.9 1926.81 1717.36V1728.22C1925.61 1728.48 1923.69 1728.72 1921.77 1728.9V1727.36C1923.51 1727.02 1924.77 1725.94 1924.77 1724.42C1924.77 1722.56 1922.93 1721.36 1920.61 1721.36C1918.27 1721.36 1916.41 1722.56 1916.41 1724.42C1916.41 1725.98 1917.77 1727.1 1919.61 1727.38V1729.06C1918.61 1729.14 1917.69 1729.18 1916.95 1729.2C1916.17 1729.2 1915.17 1729.16 1914.39 1729.02L1914.23 1729.38C1914.19 1729.48 1914.21 1729.56 1914.29 1729.64C1914.89 1730.2 1915.79 1730.84 1916.57 1731.18C1917.01 1731.02 1917.89 1730.84 1918.35 1730.8C1920.61 1730.62 1924.57 1730.04 1926.81 1729.52V1730.28C1926.81 1731.22 1926.91 1733.96 1927.05 1734.7H1928.35C1928.83 1733.34 1929.11 1730.88 1929.11 1729.56V1725.1L1932.25 1725.02C1932.45 1725.02 1932.71 1724.96 1932.83 1724.8C1932.99 1724.64 1933.11 1724.22 1933.07 1723.76C1933.05 1723.54 1932.89 1723.36 1932.65 1723.3C1932.29 1723.22 1931.43 1723.18 1930.85 1723.2L1930.21 1723.62ZM1945.74 1716.18C1946.44 1716.46 1947.06 1716.9 1947.36 1717.36V1723.12C1946.38 1723.18 1944.94 1723.22 1944.28 1723.22C1943.8 1723.22 1943.18 1723.2 1942.68 1723.14C1943.26 1722.16 1943.7 1721.18 1943.98 1720.2L1944.38 1719.5C1944.44 1719.38 1944.44 1719.26 1944.34 1719.18C1944.08 1719 1943.42 1718.66 1943.08 1718.5C1942.96 1718.46 1942.76 1718.46 1942.64 1718.5L1941.86 1718.9C1940.88 1718.96 1937.64 1719 1936.9 1719C1936.34 1719 1935.54 1718.96 1934.92 1718.86L1934.76 1719.14C1934.7 1719.22 1934.72 1719.3 1934.82 1719.4C1935.28 1719.82 1935.94 1720.28 1936.6 1720.58C1937.02 1720.42 1937.82 1720.28 1938.24 1720.26C1938.68 1720.22 1940.28 1720.2 1941.32 1720.2C1940.34 1723.34 1937.82 1726.88 1934.4 1729.56C1934.3 1729.66 1934.32 1729.74 1934.4 1729.84L1934.76 1730.18C1934.84 1730.22 1934.94 1730.22 1935.06 1730.16C1938.06 1728.58 1940.64 1726.24 1942.3 1723.74C1942.76 1724.18 1943.32 1724.58 1943.96 1724.94C1944.3 1724.78 1944.96 1724.62 1945.28 1724.58C1945.66 1724.54 1946.6 1724.48 1947.36 1724.46V1730.28C1947.36 1731.22 1947.46 1733.96 1947.6 1734.7H1948.9C1949.38 1733.34 1949.68 1730.88 1949.68 1729.56V1717.74L1949.76 1716.52C1949.76 1716.26 1949.68 1716.08 1949.46 1715.98C1948.76 1715.68 1947.2 1715.38 1946.26 1715.34C1946.06 1715.34 1946 1715.4 1945.96 1715.48L1945.74 1716.18ZM1965 1716.18C1965.72 1716.46 1966.34 1716.9 1966.64 1717.36V1726.78C1964.14 1727.46 1960.52 1727.86 1958.22 1727.88C1957.94 1727.88 1957.82 1727.74 1957.82 1727.48V1724.38L1963.5 1724.2C1963.64 1724.04 1963.76 1723.68 1963.76 1723.34C1963.76 1723.22 1963.7 1723.12 1963.6 1723.08L1963.16 1722.84C1963.38 1722.16 1963.64 1720.68 1963.68 1719.84L1963.96 1719.02C1964 1718.9 1963.98 1718.78 1963.88 1718.72C1963.62 1718.56 1963 1718.26 1962.7 1718.14C1962.56 1718.08 1962.4 1718.08 1962.28 1718.14L1961.44 1718.5C1960.6 1718.54 1957.4 1718.6 1956.64 1718.58C1956.14 1718.58 1955.24 1718.54 1954.68 1718.42L1954.5 1718.72C1954.48 1718.82 1954.48 1718.9 1954.56 1718.98C1955.04 1719.42 1955.64 1719.86 1956.28 1720.2C1956.78 1720.06 1957.5 1719.92 1957.92 1719.9C1958.38 1719.86 1960.24 1719.84 1961.14 1719.84C1961.18 1720.38 1961.18 1722.3 1961.12 1722.84L1960.76 1722.92C1960.28 1722.98 1958.62 1723.04 1957.86 1723.04C1957.18 1722.96 1955.4 1722.92 1954.66 1722.92C1954.52 1722.92 1954.44 1722.98 1954.42 1723.06L1954.3 1723.62C1954.78 1723.76 1955.22 1724 1955.5 1724.28V1727.32C1955.5 1727.76 1955.54 1728.16 1955.62 1728.38C1955.88 1729.22 1956.52 1729.74 1957.46 1729.74C1957.66 1729.74 1957.96 1729.72 1958.24 1729.7C1960.58 1729.5 1964 1728.88 1966.64 1728.02V1730.28C1966.64 1731.22 1966.74 1733.96 1966.88 1734.7H1968.18C1968.66 1733.34 1968.94 1730.88 1968.94 1729.56V1717.74L1969.02 1716.52C1969.04 1716.26 1968.96 1716.08 1968.74 1715.98C1968.02 1715.68 1966.48 1715.38 1965.54 1715.34C1965.34 1715.34 1965.28 1715.4 1965.24 1715.48L1965 1716.18Z" fill="#EFD1D1"/>
<path d="M1683.92 1526.3C1683.06 1526.36 1680.44 1526.42 1679.82 1526.4C1679.3 1526.4 1678.56 1526.38 1678 1526.3L1677.86 1526.58C1677.8 1526.66 1677.82 1526.74 1677.9 1526.84C1678.32 1527.24 1678.94 1527.68 1679.52 1527.96C1679.92 1527.82 1680.68 1527.68 1681.1 1527.66C1681.42 1527.62 1682.6 1527.6 1683.42 1527.6C1682.6 1530.58 1680.46 1534.08 1677.52 1536.62C1677.44 1536.74 1677.46 1536.82 1677.54 1536.9L1677.92 1537.24C1677.98 1537.28 1678.06 1537.26 1678.2 1537.18C1682.06 1534.92 1685.1 1531.02 1685.92 1527.54L1686.28 1526.88C1686.32 1526.76 1686.32 1526.64 1686.22 1526.56C1685.98 1526.4 1685.34 1526.04 1685.04 1525.92C1684.92 1525.86 1684.72 1525.86 1684.6 1525.92L1683.92 1526.3ZM1690.06 1523.18C1690.68 1523.44 1691.28 1523.84 1691.52 1524.26V1530.26L1689.7 1530.3V1525.8L1689.78 1524.78C1689.78 1524.54 1689.7 1524.38 1689.52 1524.3C1688.92 1524 1687.6 1523.72 1686.78 1523.68C1686.58 1523.68 1686.5 1523.74 1686.48 1523.82L1686.22 1524.5C1686.8 1524.74 1687.34 1525.12 1687.58 1525.5V1536.46C1687.58 1537.34 1687.7 1539.66 1687.84 1540.44H1689.02C1689.44 1539.24 1689.7 1537.02 1689.7 1535.82V1531.72L1691.52 1531.68V1537.4C1691.52 1538.32 1691.64 1540.98 1691.78 1541.7H1693.02C1693.48 1540.38 1693.76 1538 1693.76 1536.72V1524.6L1693.84 1523.5C1693.86 1523.24 1693.76 1523.06 1693.56 1522.98C1692.9 1522.68 1691.48 1522.38 1690.62 1522.34C1690.42 1522.34 1690.34 1522.4 1690.3 1522.5L1690.06 1523.18ZM1699.36 1523.76C1699.3 1523.84 1699.3 1523.92 1699.36 1524.04C1699.7 1524.56 1700.24 1525.2 1700.66 1525.48C1700.8 1525.58 1700.94 1525.6 1701.18 1525.58C1702 1525.5 1703.44 1525.48 1704.28 1525.46C1704.42 1525.46 1704.56 1525.44 1704.66 1525.34C1704.88 1525.12 1704.94 1524.42 1704.74 1524.1C1704.68 1523.96 1704.56 1523.9 1704.32 1523.9C1703.08 1523.92 1701.26 1523.84 1699.54 1523.52L1699.36 1523.76ZM1705.26 1526.38C1704.4 1526.44 1699.52 1526.54 1698.7 1526.54C1698.18 1526.54 1697.32 1526.48 1696.7 1526.36L1696.54 1526.66C1696.5 1526.72 1696.52 1526.8 1696.58 1526.88C1697.02 1527.32 1697.68 1527.84 1698.3 1528.12C1698.68 1528.02 1699.42 1527.88 1699.84 1527.86C1700.56 1527.8 1705 1527.7 1705.74 1527.7C1706.22 1527.7 1707.24 1527.72 1707.6 1527.76C1707.8 1527.62 1708.08 1527.2 1708.08 1526.72C1708.08 1526.56 1708 1526.42 1707.84 1526.36C1707.46 1526.22 1706.56 1526.1 1705.96 1526.06L1705.26 1526.38ZM1700.68 1531.42C1700.68 1530.34 1701.54 1529.7 1702.64 1529.7C1703.76 1529.7 1704.62 1530.34 1704.62 1531.42C1704.62 1532.5 1703.76 1533.14 1702.64 1533.14C1701.54 1533.14 1700.68 1532.5 1700.68 1531.42ZM1712.24 1530.62L1711.14 1530.68V1524.74L1711.24 1523.52C1711.24 1523.26 1711.16 1523.08 1710.94 1522.98C1710.22 1522.68 1708.68 1522.38 1707.74 1522.34C1707.54 1522.34 1707.48 1522.4 1707.44 1522.48L1707.2 1523.18C1707.92 1523.46 1708.54 1523.9 1708.84 1524.36V1535.22C1707.64 1535.48 1705.72 1535.72 1703.8 1535.9V1534.36C1705.54 1534.02 1706.8 1532.94 1706.8 1531.42C1706.8 1529.56 1704.96 1528.36 1702.64 1528.36C1700.3 1528.36 1698.44 1529.56 1698.44 1531.42C1698.44 1532.98 1699.8 1534.1 1701.64 1534.38V1536.06C1700.64 1536.14 1699.72 1536.18 1698.98 1536.2C1698.2 1536.2 1697.2 1536.16 1696.42 1536.02L1696.26 1536.38C1696.22 1536.48 1696.24 1536.56 1696.32 1536.64C1696.92 1537.2 1697.82 1537.84 1698.6 1538.18C1699.04 1538.02 1699.92 1537.84 1700.38 1537.8C1702.64 1537.62 1706.6 1537.04 1708.84 1536.52V1537.28C1708.84 1538.22 1708.94 1540.96 1709.08 1541.7H1710.38C1710.86 1540.34 1711.14 1537.88 1711.14 1536.56V1532.1L1714.28 1532.02C1714.48 1532.02 1714.74 1531.96 1714.86 1531.8C1715.02 1531.64 1715.14 1531.22 1715.1 1530.76C1715.08 1530.54 1714.92 1530.36 1714.68 1530.3C1714.32 1530.22 1713.46 1530.18 1712.88 1530.2L1712.24 1530.62ZM1730.39 1531.96C1729.83 1532 1728.07 1532.06 1726.03 1532.08V1530.04L1730.33 1529.96C1730.49 1529.96 1730.61 1529.92 1730.69 1529.84C1730.83 1529.72 1731.01 1529.36 1731.01 1528.92C1731.01 1528.72 1730.87 1528.56 1730.65 1528.52C1730.19 1528.42 1729.23 1528.36 1728.57 1528.36L1727.99 1528.66C1726.77 1528.74 1723.51 1528.78 1722.23 1528.78C1721.89 1528.78 1721.75 1528.62 1721.75 1528.28V1525.38L1730.09 1525.24C1730.27 1525.24 1730.39 1525.22 1730.49 1525.12C1730.63 1524.96 1730.77 1524.62 1730.77 1524.14C1730.77 1523.96 1730.63 1523.8 1730.41 1523.74C1729.91 1523.64 1728.97 1523.58 1728.33 1523.58L1727.69 1523.92C1726.61 1523.98 1723.13 1524.04 1721.79 1524.02C1721.11 1523.9 1719.27 1523.82 1718.49 1523.82C1718.37 1523.82 1718.31 1523.88 1718.27 1523.96L1718.11 1524.58C1718.65 1524.76 1719.11 1525.04 1719.41 1525.34V1528.34C1719.41 1529.52 1720.01 1530.16 1721.51 1530.12L1723.75 1530.08V1532.12C1721.27 1532.16 1718.93 1532.16 1718.31 1532.16C1717.57 1532.16 1716.53 1532.08 1715.75 1531.94L1715.57 1532.28C1715.53 1532.38 1715.55 1532.48 1715.63 1532.56C1716.19 1533.1 1717.07 1533.68 1717.87 1533.98C1718.41 1533.82 1719.61 1533.62 1720.15 1533.58C1721.33 1533.5 1729.61 1533.4 1730.99 1533.42C1731.63 1533.42 1733.01 1533.46 1733.53 1533.52C1733.79 1533.38 1734.13 1532.94 1734.13 1532.44C1734.13 1532.2 1733.99 1532.04 1733.79 1531.98C1733.29 1531.8 1732.09 1531.62 1731.25 1531.58L1730.39 1531.96ZM1724.79 1534.78C1722.27 1534.78 1720.27 1536.14 1720.27 1538.14C1720.27 1540.3 1722.27 1541.76 1724.79 1541.76C1727.31 1541.76 1729.33 1540.3 1729.33 1538.14C1729.33 1536.14 1727.31 1534.78 1724.79 1534.78ZM1724.79 1540.02C1723.55 1540.02 1722.59 1539.32 1722.59 1538.14C1722.59 1536.96 1723.55 1536.24 1724.79 1536.24C1726.05 1536.24 1726.99 1536.96 1726.99 1538.14C1726.99 1539.32 1726.05 1540.02 1724.79 1540.02Z" fill="#EFD1D1"/>
</svg>
