<svg width="1920" height="1020" viewBox="0 0 1920 1020" fill="none" xmlns="http://www.w3.org/2000/svg">
<mask id="mask0_650_1464" style="mask-type:alpha" maskUnits="userSpaceOnUse" x="0" y="0" width="1920" height="1020">
<rect width="1920" height="1020" fill="#C4C4C4"/>
</mask>
<g mask="url(#mask0_650_1464)">
<rect x="-0.34375" width="1920" height="885" fill="#DC4137"/>
<path d="M-111.356 834.136L-113.15 834.323L91.1378 1124.42L1937.03 1215.87L2054.35 832.823C1961.85 701.323 1655.62 853.851 1498.01 825.496C1340.39 797.14 1034.54 888.775 900.749 939.323C766.955 989.871 653.677 845.105 436.866 813.005C293.926 791.841 92.3221 812.881 -111.356 834.136Z" fill="#EE5939"/>
<path d="M442.016 892.225C298.656 871 127.156 839 -116.844 852L96.2874 1203.64L1942.18 1295.09L2064.66 871C1991.66 710.5 1660.77 899.355 1503.16 871C1345.54 842.645 1039.69 934.28 905.899 984.828C772.104 1035.38 658.826 924.325 442.016 892.225Z" fill="white"/>
</g>
</svg>
