<svg width="32" height="32" viewBox="0 0 32 32" fill="none" xmlns="http://www.w3.org/2000/svg">
<path d="M28 13.333C28 22.6663 16 30.6663 16 30.6663C16 30.6663 4 22.6663 4 13.333C4 10.1504 5.26428 7.09816 7.51472 4.84773C9.76515 2.59729 12.8174 1.33301 16 1.33301C19.1826 1.33301 22.2348 2.59729 24.4853 4.84773C26.7357 7.09816 28 10.1504 28 13.333Z" fill="#DC4137"/>
<path d="M16 22C20.9706 22 25 17.9706 25 13C25 8.02944 20.9706 4 16 4C11.0294 4 7 8.02944 7 13C7 17.9706 11.0294 22 16 22Z" fill="white"/>
<path d="M13.118 9.85C13.0747 9.88467 13.0357 9.89333 13.001 9.876C12.9663 9.85867 12.949 9.824 12.949 9.772V8.498C13.3217 8.16 13.755 7.887 14.249 7.679C14.743 7.471 15.2673 7.367 15.822 7.367C16.7927 7.367 17.5423 7.59233 18.071 8.043C18.5997 8.485 18.864 9.16533 18.864 10.084C18.864 10.3873 18.812 10.695 18.708 11.007C18.6127 11.3103 18.474 11.6137 18.292 11.917C18.1187 12.2117 17.915 12.5063 17.681 12.801C17.447 13.087 17.2 13.3687 16.94 13.646L14.496 16.259V16.285H19.007V17.585H12.65V16.363L15.679 13.048C15.991 12.71 16.2467 12.4023 16.446 12.125C16.6453 11.8477 16.8013 11.592 16.914 11.358C17.0353 11.124 17.1177 10.903 17.161 10.695C17.2043 10.487 17.226 10.2833 17.226 10.084C17.226 9.668 17.1047 9.32567 16.862 9.057C16.6193 8.78833 16.2423 8.654 15.731 8.654C15.2977 8.654 14.86 8.75367 14.418 8.953C13.9847 9.14367 13.5513 9.44267 13.118 9.85Z" fill="#DC4137"/>
</svg>
