<svg width="32" height="32" viewBox="0 0 32 32" fill="none" xmlns="http://www.w3.org/2000/svg">
<path d="M28 13.333C28 22.6663 16 30.6663 16 30.6663C16 30.6663 4 22.6663 4 13.333C4 10.1504 5.26428 7.09816 7.51472 4.84773C9.76515 2.59729 12.8174 1.33301 16 1.33301C19.1826 1.33301 22.2348 2.59729 24.4853 4.84773C26.7357 7.09816 28 10.1504 28 13.333Z" fill="#DC4137"/>
<path d="M16 22C20.9706 22 25 17.9706 25 13C25 8.02944 20.9706 4 16 4C11.0294 4 7 8.02944 7 13C7 17.9706 11.0294 22 16 22Z" fill="white"/>
<path d="M12.884 15.167C13.3693 15.609 13.8373 15.9253 14.288 16.116C14.7387 16.3067 15.224 16.402 15.744 16.402C15.9867 16.402 16.212 16.363 16.42 16.285C16.6367 16.207 16.823 16.0987 16.979 15.96C17.1437 15.8127 17.2693 15.6393 17.356 15.44C17.4513 15.2407 17.499 15.0153 17.499 14.764C17.499 14.1573 17.3257 13.711 16.979 13.425C16.6323 13.139 16.043 12.996 15.211 12.996H14.886V11.709H15.25C15.536 11.7003 15.8003 11.67 16.043 11.618C16.2857 11.566 16.498 11.4837 16.68 11.371C16.862 11.2497 17.0007 11.085 17.096 10.877C17.2 10.669 17.252 10.4003 17.252 10.071C17.252 9.577 17.1003 9.21733 16.797 8.992C16.4937 8.758 16.1123 8.641 15.653 8.641C15.4363 8.641 15.2283 8.65833 15.029 8.693C14.8297 8.72767 14.626 8.78833 14.418 8.875C14.2187 8.953 14.015 9.06133 13.807 9.2C13.599 9.33867 13.378 9.512 13.144 9.72C13.1007 9.75467 13.0573 9.76333 13.014 9.746C12.9793 9.72 12.962 9.681 12.962 9.629V8.355C13.248 8.095 13.625 7.86533 14.093 7.666C14.5697 7.46667 15.107 7.36267 15.705 7.354C16.7017 7.354 17.4817 7.57933 18.045 8.03C18.617 8.48067 18.903 9.11767 18.903 9.941C18.903 10.2357 18.851 10.513 18.747 10.773C18.6517 11.033 18.5173 11.267 18.344 11.475C18.1707 11.6743 17.967 11.8433 17.733 11.982C17.499 12.1207 17.2433 12.216 16.966 12.268V12.294C17.6073 12.424 18.1273 12.697 18.526 13.113C18.9333 13.5203 19.137 14.0577 19.137 14.725C19.137 15.115 19.059 15.4877 18.903 15.843C18.7557 16.1983 18.5347 16.5147 18.24 16.792C17.954 17.0693 17.5987 17.2903 17.174 17.455C16.758 17.6197 16.2813 17.702 15.744 17.702C15.146 17.702 14.5783 17.6067 14.041 17.416C13.5123 17.234 13.066 16.9653 12.702 16.61V15.258C12.702 15.206 12.7193 15.1713 12.754 15.154C12.7973 15.128 12.8407 15.1323 12.884 15.167Z" fill="#DC4137"/>
</svg>
