<svg width="32" height="32" viewBox="0 0 32 32" fill="none" xmlns="http://www.w3.org/2000/svg">
<path d="M28 13.333C28 22.6663 16 30.6663 16 30.6663C16 30.6663 4 22.6663 4 13.333C4 10.1504 5.26428 7.09816 7.51472 4.84773C9.76515 2.59729 12.8174 1.33301 16 1.33301C19.1826 1.33301 22.2348 2.59729 24.4853 4.84773C26.7357 7.09816 28 10.1504 28 13.333Z" fill="#DC4137"/>
<path d="M16 22C20.9706 22 25 17.9706 25 13C25 8.02944 20.9706 4 16 4C11.0294 4 7 8.02944 7 13C7 17.9706 11.0294 22 16 22Z" fill="white"/>
<path d="M12.208 15.388V14.036L16.472 7.523H18.175V14.088H19.592V15.388H18.175V17.585H16.576V15.388H12.208ZM13.521 14.088V14.114H16.628V9.915L16.667 9.057L16.225 9.915L13.521 14.088Z" fill="#DC4137"/>
</svg>
