<svg width="32" height="32" viewBox="0 0 32 32" fill="none" xmlns="http://www.w3.org/2000/svg">
<path d="M28 13.333C28 22.6663 16 30.6663 16 30.6663C16 30.6663 4 22.6663 4 13.333C4 10.1504 5.26428 7.09816 7.51472 4.84773C9.76515 2.59729 12.8174 1.33301 16 1.33301C19.1826 1.33301 22.2348 2.59729 24.4853 4.84773C26.7357 7.09816 28 10.1504 28 13.333Z" fill="#DC4137"/>
<path d="M16 22C20.9706 22 25 17.9706 25 13C25 8.02944 20.9706 4 16 4C11.0294 4 7 8.02944 7 13C7 17.9706 11.0294 22 16 22Z" fill="white"/>
<path d="M13.625 10.006C13.521 10.0493 13.469 10.0147 13.469 9.902V8.953C13.833 8.797 14.171 8.59767 14.483 8.355C14.795 8.10367 15.0767 7.82633 15.328 7.523H16.94V17.585H15.328V9.083H15.315C15.0637 9.28233 14.7863 9.46 14.483 9.616C14.1883 9.772 13.9023 9.902 13.625 10.006Z" fill="#DC4137"/>
</svg>
