<svg width="36" height="44" viewBox="0 0 36 44" fill="none" xmlns="http://www.w3.org/2000/svg">
<path d="M35.25 18.167C35.25 31.5837 18 43.0837 18 43.0837C18 43.0837 0.75 31.5837 0.75 18.167C0.75 13.592 2.56741 9.2044 5.80241 5.9694C9.03741 2.7344 13.425 0.916992 18 0.916992C22.575 0.916992 26.9626 2.7344 30.1976 5.9694C33.4326 9.2044 35.25 13.592 35.25 18.167Z" fill="#DC4137"/>
<path d="M18 23.917C21.1756 23.917 23.75 21.3426 23.75 18.167C23.75 14.9914 21.1756 12.417 18 12.417C14.8244 12.417 12.25 14.9914 12.25 18.167C12.25 21.3426 14.8244 23.917 18 23.917Z" fill="white"/>
</svg>
