<svg width="34" height="34" viewBox="0 0 34 34" fill="none" xmlns="http://www.w3.org/2000/svg">
<path d="M25.1172 10.9511C25.5292 10.5401 26.0362 10.237 26.5932 10.0686C27.1503 9.90012 27.7403 9.87155 28.311 9.98537C28.8818 10.0992 29.4157 10.3519 29.8655 10.7212C30.3153 11.0904 30.6672 11.5648 30.8901 12.1024C31.1129 12.6401 31.1998 13.2243 31.1432 13.8035C31.0865 14.3827 30.888 14.939 30.5651 15.4233C30.2423 15.9075 29.8051 16.3047 29.2923 16.5798C28.7794 16.8548 28.2066 16.9993 27.6247 17.0003H2.83301M13.5855 6.5028C13.9146 6.17175 14.3204 5.92713 14.7668 5.7907C15.2132 5.65427 15.6865 5.63026 16.1444 5.72079C16.6023 5.81132 17.0308 6.01359 17.3917 6.30963C17.7527 6.60567 18.0349 6.98629 18.2132 7.41767C18.3916 7.84905 18.4606 8.31782 18.4142 8.78231C18.3677 9.24679 18.2072 9.6926 17.9469 10.0801C17.6867 10.4676 17.3347 10.7848 16.9223 11.0035C16.5099 11.2222 16.0498 11.3356 15.583 11.3336H2.83301L13.5855 6.5028ZM17.8355 27.4978C18.1646 27.8289 18.5704 28.0735 19.0168 28.2099C19.4632 28.3463 19.9365 28.3703 20.3944 28.2798C20.8523 28.1893 21.2808 27.987 21.6417 27.691C22.0027 27.3949 22.2849 27.0143 22.4632 26.5829C22.6416 26.1516 22.7106 25.6828 22.6642 25.2183C22.6177 24.7538 22.4572 24.308 22.1969 23.9205C21.9367 23.533 21.5847 23.2158 21.1723 22.9971C20.7599 22.7784 20.2998 22.665 19.833 22.667H2.83301L17.8355 27.4978Z" stroke="white" stroke-width="2.83333" stroke-linecap="round" stroke-linejoin="round"/>
</svg>
